<svg xmlns="http://www.w3.org/2000/svg" width="1200" height="800" viewBox="0 0 1200 800" fill="none">
  <defs>
    <linearGradient id="g4" x1="0" y1="0" x2="1" y2="1">
      <stop offset="0%" stop-color="#0F172A"/>
      <stop offset="55%" stop-color="#1E293B"/>
      <stop offset="100%" stop-color="#0B1220"/>
    </linearGradient>
    <linearGradient id="chart" x1="0" y1="1" x2="1" y2="0">
      <stop offset="0%" stop-color="#22C55E"/>
      <stop offset="50%" stop-color="#06B6D4"/>
      <stop offset="100%" stop-color="#4F46E5"/>
    </linearGradient>
  </defs>
  <rect width="1200" height="800" fill="url(#g4)"/>
  <rect x="140" y="140" width="920" height="520" rx="48" fill="#F8FAFC" fill-opacity="0.07"/>
  <g stroke="#F8FAFC" stroke-opacity="0.2" stroke-width="2">
    <line x1="220" y1="580" x2="980" y2="580"/>
    <line x1="220" y1="500" x2="980" y2="500"/>
    <line x1="220" y1="420" x2="980" y2="420"/>
    <line x1="220" y1="340" x2="980" y2="340"/>
  </g>
  <path d="M240 560 C340 500 420 520 520 460 C620 400 700 420 820 360 C900 320 960 300 980 260" stroke="url(#chart)" stroke-width="10" fill="none"/>
  <g fill="#F8FAFC" fill-opacity="0.9">
    <circle cx="240" cy="560" r="10"/>
    <circle cx="520" cy="460" r="10"/>
    <circle cx="820" cy="360" r="10"/>
    <circle cx="980" cy="260" r="10"/>
  </g>
</svg>
